<?xml version="1.0" encoding="UTF-8" standalone="no"?>
<svg xmlns="http://www.w3.org/2000/svg" xmlns:xlink="http://www.w3.org/1999/xlink" contentScriptType="application/ecmascript" contentStyleType="text/css" height="323px" preserveAspectRatio="none" style="width:848px;height:323px;background:#FFFFFF;" version="1.1" viewBox="0 0 848 323" width="848px" zoomAndPan="magnify"><defs/><g><rect fill="#FEFECE" height="182.6719" rx="5" ry="5" style="stroke:#FEFECE;stroke-width:1.5;" width="297" x="10" y="39.5"/><rect fill="#CCFF02" height="20.2969" rx="2" ry="2" style="stroke:#CCFF02;stroke-width:1.0;" width="295" x="11.5" y="39.5"/><text fill="#000000" font-family="sans-serif" font-size="14" lengthAdjust="spacing" textLength="78" x="15" y="54.4951">file_data_1</text><text fill="#000000" font-family="sans-serif" font-size="14" lengthAdjust="spacing" textLength="175" x="127" y="54.4951">bytes of encrypted data</text><line style="stroke:#A80036;stroke-width:1.0;" x1="122" x2="122" y1="39.5" y2="59.7969"/><line style="stroke:#A80036;stroke-width:1.0;" x1="10" x2="307" y1="59.7969" y2="59.7969"/><text fill="#000000" font-family="sans-serif" font-size="14" lengthAdjust="spacing" textLength="77" x="15" y="74.792">file_data_2</text><text fill="#000000" font-family="sans-serif" font-size="14" lengthAdjust="spacing" textLength="0" x="131" y="74.792"/><line style="stroke:#A80036;stroke-width:1.0;" x1="122" x2="122" y1="59.7969" y2="80.0938"/><line style="stroke:#A80036;stroke-width:1.0;" x1="10" x2="307" y1="80.0938" y2="80.0938"/><text fill="#000000" font-family="sans-serif" font-size="14" lengthAdjust="spacing" textLength="84" x="15" y="95.0889">file_data_...</text><text fill="#000000" font-family="sans-serif" font-size="14" lengthAdjust="spacing" textLength="0" x="131" y="95.0889"/><line style="stroke:#A80036;stroke-width:1.0;" x1="122" x2="122" y1="80.0938" y2="100.3906"/><line style="stroke:#A80036;stroke-width:1.0;" x1="10" x2="307" y1="100.3906" y2="100.3906"/><text fill="#000000" font-family="sans-serif" font-size="14" lengthAdjust="spacing" textLength="78" x="15" y="115.3857">file_data_n</text><text fill="#000000" font-family="sans-serif" font-size="14" lengthAdjust="spacing" textLength="0" x="131" y="115.3857"/><line style="stroke:#A80036;stroke-width:1.0;" x1="122" x2="122" y1="100.3906" y2="120.6875"/><rect fill="#CCFF02" height="20.2969" rx="2" ry="2" style="stroke:#CCFF02;stroke-width:1.0;" width="295" x="11.5" y="120.6875"/><line style="stroke:#A80036;stroke-width:1.0;" x1="10" x2="307" y1="120.6875" y2="120.6875"/><text fill="#000000" font-family="sans-serif" font-size="14" lengthAdjust="spacing" textLength="96" x="15" y="135.6826">file_header_1</text><text fill="#000000" font-family="sans-serif" font-size="14" lengthAdjust="spacing" textLength="0" x="139" y="135.6826"/><line style="stroke:#A80036;stroke-width:1.0;" x1="122" x2="122" y1="120.6875" y2="140.9844"/><line style="stroke:#A80036;stroke-width:1.0;" x1="10" x2="307" y1="140.9844" y2="140.9844"/><text fill="#000000" font-family="sans-serif" font-size="14" lengthAdjust="spacing" textLength="95" x="15" y="155.9795">file_header_2</text><text fill="#000000" font-family="sans-serif" font-size="14" lengthAdjust="spacing" textLength="0" x="131" y="155.9795"/><line style="stroke:#A80036;stroke-width:1.0;" x1="122" x2="122" y1="140.9844" y2="161.2813"/><line style="stroke:#A80036;stroke-width:1.0;" x1="10" x2="307" y1="161.2813" y2="161.2813"/><text fill="#000000" font-family="sans-serif" font-size="14" lengthAdjust="spacing" textLength="102" x="15" y="176.2764">file_header_...</text><text fill="#000000" font-family="sans-serif" font-size="14" lengthAdjust="spacing" textLength="0" x="131" y="176.2764"/><line style="stroke:#A80036;stroke-width:1.0;" x1="122" x2="122" y1="161.2813" y2="181.5781"/><line style="stroke:#A80036;stroke-width:1.0;" x1="10" x2="307" y1="181.5781" y2="181.5781"/><text fill="#000000" font-family="sans-serif" font-size="14" lengthAdjust="spacing" textLength="96" x="15" y="196.5732">file_header_n</text><text fill="#000000" font-family="sans-serif" font-size="14" lengthAdjust="spacing" textLength="0" x="131" y="196.5732"/><line style="stroke:#A80036;stroke-width:1.0;" x1="122" x2="122" y1="181.5781" y2="201.875"/><rect fill="#CCFF02" height="20.2969" rx="2" ry="2" style="stroke:#CCFF02;stroke-width:1.0;" width="295" x="11.5" y="201.875"/><line style="stroke:#A80036;stroke-width:1.0;" x1="10" x2="307" y1="201.875" y2="201.875"/><text fill="#000000" font-family="sans-serif" font-size="14" lengthAdjust="spacing" textLength="78" x="15" y="216.8701">IPF_header</text><text fill="#000000" font-family="sans-serif" font-size="14" lengthAdjust="spacing" textLength="0" x="139" y="216.8701"/><line style="stroke:#A80036;stroke-width:1.0;" x1="122" x2="122" y1="201.875" y2="222.1719"/><rect fill="none" height="182.6719" rx="5" ry="5" style="stroke:#A80036;stroke-width:1.5;" width="297" x="10" y="39.5"/><rect fill="#FEFECE" height="162.375" rx="5" ry="5" style="stroke:#FEFECE;stroke-width:1.5;" width="466" x="357" y="10"/><text fill="#000000" font-family="sans-serif" font-size="14" lengthAdjust="spacing" textLength="122" x="362" y="24.9951">file-name-length</text><text fill="#000000" font-family="sans-serif" font-size="14" lengthAdjust="spacing" textLength="177" x="568" y="24.9951">byte length of file-name</text><line style="stroke:#A80036;stroke-width:1.0;" x1="563" x2="563" y1="10" y2="30.2969"/><line style="stroke:#A80036;stroke-width:1.0;" x1="357" x2="823" y1="30.2969" y2="30.2969"/><text fill="#000000" font-family="sans-serif" font-size="14" lengthAdjust="spacing" textLength="39" x="362" y="45.292">crc32</text><text fill="#000000" font-family="sans-serif" font-size="14" lengthAdjust="spacing" textLength="139" x="568" y="45.292">crc32 of data bytes</text><line style="stroke:#A80036;stroke-width:1.0;" x1="563" x2="563" y1="30.2969" y2="50.5938"/><line style="stroke:#A80036;stroke-width:1.0;" x1="357" x2="823" y1="50.5938" y2="50.5938"/><text fill="#000000" font-family="sans-serif" font-size="14" lengthAdjust="spacing" textLength="179" x="362" y="65.5889">compressed-data-length</text><text fill="#000000" font-family="sans-serif" font-size="14" lengthAdjust="spacing" textLength="232" x="568" y="65.5889">byte length of compressed data</text><line style="stroke:#A80036;stroke-width:1.0;" x1="563" x2="563" y1="50.5938" y2="70.8906"/><line style="stroke:#A80036;stroke-width:1.0;" x1="357" x2="823" y1="70.8906" y2="70.8906"/><text fill="#000000" font-family="sans-serif" font-size="14" lengthAdjust="spacing" textLength="196" x="362" y="85.8857">uncompressed-data-length</text><text fill="#000000" font-family="sans-serif" font-size="14" lengthAdjust="spacing" textLength="250" x="568" y="85.8857">byte length of decompressed data</text><line style="stroke:#A80036;stroke-width:1.0;" x1="563" x2="563" y1="70.8906" y2="91.1875"/><line style="stroke:#A80036;stroke-width:1.0;" x1="357" x2="823" y1="91.1875" y2="91.1875"/><text fill="#000000" font-family="sans-serif" font-size="14" lengthAdjust="spacing" textLength="82" x="362" y="106.1826">data-offset</text><text fill="#000000" font-family="sans-serif" font-size="14" lengthAdjust="spacing" textLength="113" x="568" y="106.1826">location of data</text><line style="stroke:#A80036;stroke-width:1.0;" x1="563" x2="563" y1="91.1875" y2="111.4844"/><line style="stroke:#A80036;stroke-width:1.0;" x1="357" x2="823" y1="111.4844" y2="111.4844"/><text fill="#000000" font-family="sans-serif" font-size="14" lengthAdjust="spacing" textLength="151" x="362" y="126.4795">archive-name-length</text><text fill="#000000" font-family="sans-serif" font-size="14" lengthAdjust="spacing" textLength="206" x="568" y="126.4795">byte length of archive-name</text><line style="stroke:#A80036;stroke-width:1.0;" x1="563" x2="563" y1="111.4844" y2="131.7813"/><line style="stroke:#A80036;stroke-width:1.0;" x1="357" x2="823" y1="131.7813" y2="131.7813"/><text fill="#000000" font-family="sans-serif" font-size="14" lengthAdjust="spacing" textLength="98" x="362" y="146.7764">archive-name</text><text fill="#000000" font-family="sans-serif" font-size="14" lengthAdjust="spacing" textLength="96" x="568" y="146.7764">archive name</text><line style="stroke:#A80036;stroke-width:1.0;" x1="563" x2="563" y1="131.7813" y2="152.0781"/><line style="stroke:#A80036;stroke-width:1.0;" x1="357" x2="823" y1="152.0781" y2="152.0781"/><text fill="#000000" font-family="sans-serif" font-size="14" lengthAdjust="spacing" textLength="69" x="362" y="167.0732">file-name</text><text fill="#000000" font-family="sans-serif" font-size="14" lengthAdjust="spacing" textLength="67" x="568" y="167.0732">file name</text><line style="stroke:#A80036;stroke-width:1.0;" x1="563" x2="563" y1="152.0781" y2="172.375"/><rect fill="none" height="162.375" rx="5" ry="5" style="stroke:#A80036;stroke-width:1.5;" width="466" x="357" y="10"/><rect fill="#FEFECE" height="121.7813" rx="5" ry="5" style="stroke:#FEFECE;stroke-width:1.5;" width="492" x="344" y="190"/><text fill="#000000" font-family="sans-serif" font-size="14" lengthAdjust="spacing" textLength="71" x="349" y="204.9951">file_count</text><text fill="#000000" font-family="sans-serif" font-size="14" lengthAdjust="spacing" textLength="182" x="471" y="204.9951">number of files in archive</text><line style="stroke:#A80036;stroke-width:1.0;" x1="466" x2="466" y1="190" y2="210.2969"/><line style="stroke:#A80036;stroke-width:1.0;" x1="344" x2="836" y1="210.2969" y2="210.2969"/><text fill="#000000" font-family="sans-serif" font-size="14" lengthAdjust="spacing" textLength="112" x="349" y="225.292">filetable_offset</text><text fill="#000000" font-family="sans-serif" font-size="14" lengthAdjust="spacing" textLength="177" x="471" y="225.292">location of file_header_1</text><line style="stroke:#A80036;stroke-width:1.0;" x1="466" x2="466" y1="210.2969" y2="230.5938"/><line style="stroke:#A80036;stroke-width:1.0;" x1="344" x2="836" y1="230.5938" y2="230.5938"/><text fill="#000000" font-family="sans-serif" font-size="14" lengthAdjust="spacing" textLength="101" x="349" y="245.5889">header_offset</text><text fill="#000000" font-family="sans-serif" font-size="14" lengthAdjust="spacing" textLength="159" x="471" y="245.5889">location of IPF_header</text><line style="stroke:#A80036;stroke-width:1.0;" x1="466" x2="466" y1="230.5938" y2="250.8906"/><line style="stroke:#A80036;stroke-width:1.0;" x1="344" x2="836" y1="250.8906" y2="250.8906"/><text fill="#000000" font-family="sans-serif" font-size="14" lengthAdjust="spacing" textLength="67" x="349" y="265.8857">signature</text><text fill="#000000" font-family="sans-serif" font-size="14" lengthAdjust="spacing" textLength="360" x="471" y="265.8857">magic signature. must be [0x50, 0x4B, 0x05, 0x06]</text><line style="stroke:#A80036;stroke-width:1.0;" x1="466" x2="466" y1="250.8906" y2="271.1875"/><line style="stroke:#A80036;stroke-width:1.0;" x1="344" x2="836" y1="271.1875" y2="271.1875"/><text fill="#000000" font-family="sans-serif" font-size="14" lengthAdjust="spacing" textLength="97" x="349" y="286.1826">base_revision</text><text fill="#000000" font-family="sans-serif" font-size="14" lengthAdjust="spacing" textLength="64" x="471" y="286.1826">unknown</text><line style="stroke:#A80036;stroke-width:1.0;" x1="466" x2="466" y1="271.1875" y2="291.4844"/><line style="stroke:#A80036;stroke-width:1.0;" x1="344" x2="836" y1="291.4844" y2="291.4844"/><text fill="#000000" font-family="sans-serif" font-size="14" lengthAdjust="spacing" textLength="56" x="349" y="306.4795">revision</text><text fill="#000000" font-family="sans-serif" font-size="14" lengthAdjust="spacing" textLength="105" x="471" y="306.4795">version of file?</text><line style="stroke:#A80036;stroke-width:1.0;" x1="466" x2="466" y1="291.4844" y2="311.7813"/><rect fill="none" height="121.7813" rx="5" ry="5" style="stroke:#A80036;stroke-width:1.5;" width="492" x="344" y="190"/><path d="M295,130 L308,130 C321.5295,130 335.3904,129.5525 349.3566,128.7534 " fill="none" style="stroke:#A80036;stroke-width:1.0;stroke-dasharray:3.0,3.0;"/><path d="M349.5484,131.8608 L351.6871,128.6096 L349.1648,125.6461 L357.125,128.2739 L349.5484,131.8608 " fill="#A80036" style="stroke:#A80036;stroke-width:1.0;"/><ellipse cx="295" cy="130" fill="#A80036" rx="3" ry="3" style="stroke:#A80036;stroke-width:1.0;"/><path d="M295,212 L308,212 C317.3434,212 326.845,212.2134 336.4301,212.6087 " fill="none" style="stroke:#A80036;stroke-width:1.0;stroke-dasharray:3.0,3.0;"/><path d="M336.2879,215.6901 L338.7411,212.7153 L336.5722,209.5273 L344.1336,212.9641 L336.2879,215.6901 " fill="#A80036" style="stroke:#A80036;stroke-width:1.0;"/><ellipse cx="295" cy="212" fill="#A80036" rx="3" ry="3" style="stroke:#A80036;stroke-width:1.0;"/><!--MD5=[5a8dba111b11ce3cfec08f13af1bc37f]
@startyaml
#highlight "file_data_1"
#highlight "file_header_1"
#highlight "IPF_header"

file_data_1: "bytes of encrypted data"
file_data_2: ""
file_data_...: ""
file_data_n: ""
file_header_1: 
        file-name-length: "byte length of file-name"
        crc32: "crc32 of data bytes"
        compressed-data-length: "byte length of compressed data"
        uncompressed-data-length: "byte length of decompressed data"
        data-offset: "location of data"
        archive-name-length: "byte length of archive-name"
        archive-name: "archive name"
        file-name: "file name"
file_header_2: ""
file_header_...: ""
file_header_n: ""
IPF_header:
        file_count: "number of files in archive"
        filetable_offset: "location of file_header_1"
        header_offset: "location of IPF_header"
        signature: "magic signature. must be [0x50, 0x4B, 0x05, 0x06]"
        base_revision: "unknown"
        revision: "version of file?"
@endyaml

PlantUML version 1.2021.10beta5(Unknown compile time)
(GPL source distribution)
Java Runtime: Java(TM) SE Runtime Environment
JVM: Java HotSpot(TM) 64-Bit Server VM
Default Encoding: UTF-8
Language: en
Country: US
--></g></svg>